<svg xmlns="http://www.w3.org/2000/svg" viewBox="0 0 32 32" fill="none">
  <defs><linearGradient id="g" x1="0" y1="0" x2="32" y2="32"><stop offset="0%" stop-color="#10a37f"/><stop offset="100%" stop-color="#3b82f6"/></linearGradient></defs>
  <rect width="32" height="32" rx="8" fill="url(#g)"/>
  <path d="M16 8c-2.2 0-4 1.3-4 3v2c-2.2.3-4 2.3-4 4.7 0 2.6 2 4.6 4.5 4.7v1.6c0 1.1.9 2 2 2s2-.9 2-2v-1.6c2.5-.1 4.5-2.1 4.5-4.7 0-2.4-1.8-4.4-4-4.7v-2c0-1.7-1.8-3-4-3zm0 2.5c1 0 1.8.8 1.8 1.8v1H14.2v-1c0-1 .8-1.8 1.8-1.8z" fill="white" opacity="0.9"/>
</svg>
